M48
;Layer_Color=9474304
;FILE_FORMAT=2:5
INCH,LZ
;TYPE=PLATED
T2F00S00C0.03543
T3F00S00C0.05000
;TYPE=NON_PLATED
T1F00S00C0.13500
%
T02
X-0025Y-002
Y-001
Y0
Y001
Y002
X-0005Y0
X0
X0005
X0025
Y001
Y002
Y-001
Y-002
T03
X-00375Y00005
X-0015Y0005
Y-00055
X0015Y0
X00375Y00005
T01
X0Y-0025
Y0025
M30
